<svg xmlns="http://www.w3.org/2000/svg" viewBox="0 0 600 750" role="img" aria-label="chair">
  <defs>
    <linearGradient id="bg" x1="0" y1="0" x2="0.3" y2="1">
      <stop offset="0" stop-color="#F1EBE3"/><stop offset="1" stop-color="#DFD3C3"/>
    </linearGradient>
    <radialGradient id="hl" cx="0.5" cy="0.42" r="0.55">
      <stop offset="0" stop-color="#ffffff" stop-opacity="0.75"/>
      <stop offset="1" stop-color="#ffffff" stop-opacity="0"/>
    </radialGradient>
  </defs>
  <rect width="600" height="750" fill="url(#bg)"/>
  <rect width="600" height="750" fill="url(#hl)"/>
  <g fill="none" stroke="#101114" stroke-opacity="0.58" stroke-width="6" stroke-linecap="round" stroke-linejoin="round">
    <path d="M203 424V304c64-32 130-32 194 0v120"/>
    <path d="M188 424h224a12 12 0 0 1 12 12v26a12 12 0 0 1-12 12H188a12 12 0 0 1-12-12v-26a12 12 0 0 1 12-12z"/>
    <path d="M212 474l-26 116M388 474l26 116M244 474v96M356 474v96" stroke-opacity="0.55"/>
    <path d="M212 350h176" stroke-opacity="0.3"/>
  </g>
</svg>
